# xmcd
#
# Track frame offsets:
#	150
#	10836
#	23315
#	42036
#	59772
#	73236
#	88426
#	104646
#	119836
#	134247
#	149751
#	165318
#	181076
#	193368
#	207514
#
# Disc length: 2953 seconds
#
# Revision: 0
# Processed by: cddbd v1.4PL0 Copyright (c) Steve Scherf et al.
# Submitted via: EasyCDDAExtractor 4.6.0.1
#
DISCID=f00b870f
DTITLE=Mats Rådberg o Rankarna - The Race is on
DYEAR=1997
DGENRE=Country
TTITLE0=The Race is on
TTITLE1=I wasn't fooling around
TTITLE2=Vid den här tiden
TTITLE3=Heart full of rain
TTITLE4=One more for the road
TTITLE5=(Det ska va) mulliga tjejer
TTITLE6=All of my heroes
TTITLE7=Hang your teardrops out to dry
TTITLE8=När jag ser dig
TTITLE9=Act of a fool
TTITLE10=Låt det hända i morgon (On the road to tomorrow)
TTITLE11=Hotel Coupe de Ville
TTITLE12=Jag ger dig min sång
TTITLE13=If you ever think of coming back
TTITLE14=Ingen som vet (Jag är Elvis)(Nobody knows)
EXTD=
EXTT0=
EXTT1=
EXTT2=
EXTT3=
EXTT4=
EXTT5=
EXTT6=
EXTT7=
EXTT8=
EXTT9=
EXTT10=
EXTT11=
EXTT12=
EXTT13=
EXTT14=
PLAYORDER=
